/* XPM */
static char *result[] = {
/* columns rows colors chars-per-pixel */
"40 40 137 2 ",
"   c #000000",
".  c #222323",
"X  c #2C2C2C",
"o  c #333333",
"O  c #3A3B3B",
"+  c #6E0000",
"@  c #740000",
"#  c #7F0000",
"$  c #772B1B",
"%  c #7C2D1C",
"&  c #454545",
"*  c #474848",
"=  c #4B4C4C",
"-  c #504F4F",
";  c gray33",
":  c #5A5B5B",
">  c #656565",
",  c #6F6F6F",
"<  c #717272",
"1  c #7C7C7C",
"2  c #860000",
"3  c #8B0000",
"4  c #910000",
"5  c #9B0100",
"6  c #A50000",
"7  c #A90100",
"8  c #B70000",
"9  c #BE0000",
"0  c #AD1300",
"q  c #B51A00",
"w  c #BB1D00",
"e  c #8C2A0E",
"r  c #932C0E",
"t  c #9D2F0F",
"y  c #9F300F",
"u  c #8D2C11",
"i  c #862F1D",
"p  c #932E11",
"a  c #9A2F11",
"s  c #87311E",
"d  c #8E321D",
"f  c #9E3113",
"g  c #A33213",
"h  c #AA3514",
"j  c #A1371F",
"k  c #AF3B1F",
"l  c #B13715",
"z  c #B63815",
"x  c #BD3A16",
"c  c #8E3422",
"v  c #943521",
"b  c #9F3923",
"n  c #A13923",
"m  c #AB3C24",
"M  c #B33D21",
"N  c #BB3E20",
"B  c #CE1100",
"V  c #CD1800",
"C  c #D01600",
"Z  c #DB1C00",
"A  c #D32000",
"S  c #C13C17",
"D  c #CA3E17",
"F  c #C73D18",
"G  c #CB3F18",
"H  c #E02400",
"J  c #E02900",
"K  c #BE4126",
"L  c #CF4016",
"P  c #CF4018",
"I  c #D24117",
"U  c #DB4317",
"Y  c #D24119",
"T  c #DD451A",
"R  c #E3461B",
"E  c #E7481B",
"W  c #ED4A1C",
"Q  c #C14225",
"!  c #CF4627",
"~  c #D24726",
"^  c #DF4A27",
"/  c #DD4B29",
"(  c #E54D2A",
")  c #937F7D",
"_  c #9D817E",
"`  c #848484",
"'  c #8C8C8D",
"]  c #978382",
"[  c #9C8482",
"{  c #959595",
"}  c gray61",
"|  c #A28582",
" . c #AB8582",
".. c #A68F8D",
"X. c #AD8D8A",
"o. c #B38682",
"O. c #B48883",
"+. c #B58F8C",
"@. c #BB8C88",
"#. c #B6928E",
"$. c #B79593",
"%. c #BC9693",
"&. c #B59896",
"*. c #B39D9B",
"=. c #B99C99",
"-. c #A3A3A3",
";. c #ACACAC",
":. c #B1AFAF",
">. c #ADB3B3",
",. c #B2B3B3",
"<. c #B9B7B7",
"1. c #B5B9B9",
"2. c #BDBDBD",
"3. c #D5938C",
"4. c #C09996",
"5. c #CB9995",
"6. c #C49C99",
"7. c #D19590",
"8. c #D49994",
"9. c #DC9B95",
"0. c #E4A19B",
"q. c #C0BEBE",
"w. c #BEC4C4",
"e. c #C3C3C3",
"r. c #C8C7C7",
"t. c #C5C9C9",
"y. c #CCCCCC",
"u. c #D1CFCF",
"i. c #CED3D4",
"p. c #D3D3D3",
"a. c #D8D7D7",
"s. c #D2D7D8",
"d. c #D6DBDC",
"f. c #DADADA",
"g. c #DEE3E3",
"h. c #E1E4E4",
"j. c #E3EBEB",
/* pixels */
"T T Y G G z z l h h I T Y D D z z l g h Y R Y D D z z l g h Y R Y F F z z l h h ",
"U W Y Y Y S S z h h T E T Y P S S z h z T E T Y P S x x h l T E T Y Y x S z h h ",
"T R Y F F z l h f f Y T I S F l l h f h Y T P P F z l h f g Y T Y S F l z h f g ",
"Y E P x S h h g u p Y T P x S h h f u r Y T P S x h h f e p Y R P x S h h f u u ",
"T E P S S h h g u p Y R P S S h h f u p Y R P x x h h f u p Y R P x S h h g u p ",
"T E P S x h h g u p Y T P x S h h f u p Y T Y S x h h f u p Y T P x S l h a u u ",
"Y E P x S h h f u p G U P x x h h f u p Y R Y S S h h f u f Y R G S S h h a p p ",
"T E Y x S h h f u a G ( P S S h h f u p Y R P x P h h f e p Y T P x S h h f u u ",
"T R P x S h h g u p Y T G F S h h f u p Y T P P x h h f u p Y R P x S h h f p p ",
"T R I x S h h t e r I T G x S h h y e a Y U P x x h h f e r I T L S S h h y e r ",
"/ ( ! K Q m m n v v ~ / ! N Q m m b c v ~ ^ ~ Q K K b b c b ~ ( ! K Q m m b c v ",
"Z H B 9 9 7 6 5 2 3 C H B 8 B 6 6 5 2 4 A J V 9 9 6 5 5 2 4 A A V 9 9 7 6 5 2 2 ",
"9.0.9.5.5.4.%.#.X.X.8.9.8.5.5.4.%.=.&.&.3.3.7.5.5.4.4.$.X.X.3.3.7.5.5.4.4.$...X.",
"g.j.g.h.g.h.j.f.s.p.g.g.g.g.g.h.h.g.h.g.i.i.d.g.g.g.h.f.s.s.s.i.f.h.g.g.h.f.p.s.",
"f.h.a.f.f.p.p.y.r.r.p.p.p.a.f.p.p.p.a.a.u.y.u.p.p.a.f.u.r.r.r.r.u.p.p.a.d.p.y.y.",
"p.p.p.f.f.< & ; & & ; O { f.r.> . { p.y.p.h.,.X : r.d.} o - & & = = : u.h.p.y.y.",
"p.p.p.f.f.&             1 a.r.&   ' f.p.a.h.:.  . e.f.{               y.h.p.y.u.",
"y.p.p.a.p.{ ' <   . ` ` ;.p.r.=   < ;.-.i.f.;.  O e.p.,.` ' O   > { ' y.f.p.y.u.",
"y.p.y.y.y.p.f.-.  X r.a.i.y.y.&         e.a.-.  o e.p.y.p.p.:   { f.i.u.y.y.u.u.",
"y.f.y.p.y.r.s.}   X 2.p.r.p.r.&   X o * 2.p.-.  o e.p.r.i.r.;   { p.y.u.y.y.y.u.",
"i.a.y.y.y.r.p.-.  X q.p.t.y.r.=   ` y.w.> = &   o e.p.y.u.r.:   { p.y.y.y.y.u.y.",
"y.p.u.p.p.y.f.-.  X 2.p.y.p.y.=   ' f.y.        X e.p.y.u.r.;   { a.u.u.u.i.y.u.",
"y.p.r.e.e.e.r.{   X 2.p.r.e.2.&   ' p.r.{ { ,   o r.u.r.p.r.;   ' t.q.e.w.r.y.u.",
"i.f.2.;.;.;.,.`   . e.p.2.;.;.O   ' p.y.u.f.-.  X e.s.r.p.r.;   1 ,.;.;.;.2.p.y.",
"y.p.q.;.,.;.<.'   O 2.p.q.,.;.=   ' s.r.r.p.-.  * e.p.r.u.r.:   ` <.;.,.;.2.u.y.",
",.<.>.:.;.r.y.<.-.-.:.,.<.y.r.;.-.;.,.,.,.,.<.e.e.,.:.,.,.,.q.r.<.;.;.;.:.:.,.,.",
",.1.>.>.>.i.d.t.,.1.>.>.w.f.p.2.,.1.>.,.>.>.w.a.s.1.>.,.>.1.p.d.t.>.1.,.,.,.,.,.",
"O.@.O. . .&.*...) ]  .o.+.=.&.[ _ [ ] [ o.o.+.=.&.| [ [ ] [ %.6.#._  .| [ [ [ ] ",
"q w 0 5 5 2 2 # + @ 0 w 7 5 5 3 2 2 + @ 0 w 7 5 5 2 2 2 + @ 7 9 7 5 5 3 2 # + @ ",
"N Q m f j v c s $ % k N m n n d d i $ % M N M b n d d i $ % M K m j j d d i % % ",
"I R P x x h g y e r D U G x x g g f e r I U D x x g g f e r G U D x x h g a u u ",
"T E Y S S h h f u a I R D S S h h f u p I T I S F h h f u p Y R G S S h h f u p ",
"U R P x S h h g u p Y T G S S h g f u a Y ^ G S S h h f u p G T G S S h g f u u ",
"U R Y S S h h f u p Y T Y x S h h f u a G U Y S S h h f u p T T G S S h h g p p ",
"T E P x S h h f u p P ^ P S x h h f u p T T G S S h g g u a G R G S S h h a u p ",
"T E P S x h h g u p P T Y x S h h f u a G R G F S h h f p a G R G x x l h a u u ",
"T R P S S l j g u p G T P S S h h f u p Y T Y x S h h g u p G E Y S S l g f u p ",
"P T S x x g g f u p G T F z x h g f u p G T F z x g g a p p G G S x x g g f u p ",
"x G x l l g f a u p x S x l h g f a p p x S x l l g a a u p x F x l l f g a d p ",
"S G x l l g f f u p x F x l l g g a u p x F x l k g g a u p x F x l l f f a p u "
};
