/* XPM */
static char *result[] = {
/* columns rows colors chars-per-pixel */
"64 64 34 1 ",
"  c black",
". c #9F9F00",
"X c #DFDF00",
"o c #EEEE00",
"O c #F3F300",
"+ c #F6F600",
"@ c #FCFC00",
"# c #FDFD00",
"$ c #FEFE00",
"% c yellow",
"& c #FEFE01",
"* c #FDFD02",
"= c #FEFE02",
"- c #FFFF02",
"; c #FFFF05",
": c #FEFE07",
"> c #FFFF07",
", c #FFFF08",
"< c #FFFF0A",
"1 c #FFFF0B",
"2 c #FEFE15",
"3 c #FDFD1D",
"4 c #FEFE1C",
"5 c #FEFE1D",
"6 c #FEFE1E",
"7 c #FEFE20",
"8 c #FDFD25",
"9 c #FFFF28",
"0 c #FEFE29",
"q c #FFFF29",
"w c #FDFD39",
"e c #FEFE3A",
"r c #FFFF3E",
"t c None",
/* pixels */
"tttttttttttttttttttttttttttttttttttttttttttttttttttttttttttttttt",
"tttttttttttttttttttttttttttttttttttttttttttttttttttttttttttttttt",
"tttttttttttttttttttttttttttttttttttttttttttttttttttttttttttttttt",
"tttttttttttttttttttttttttttttttttttttttttttttttttttttttttttttttt",
"tttttttttttttttttttttttttttttttttttttttttttttttttttttttttttttttt",
"tttttttttttttttttttttttttttttttttttttttttttttttttttttttttttttttt",
"tttttttttttttttttttttttttttttttttttttttttttttttttttttttttttttttt",
"tttttttttttttttttttttttttttttttttttttttttttttttttttttttttttttttt",
"tttttttttttttttttttttttttttttttttttttttttttttttttttttttttttttttt",
"tttttttttttttttttttttttttttttttttttttttttttttttttttttttttttttttt",
"tttttttttttttttttttttttttttttttttttttttttttttttttttttttttttttttt",
"tttttttttttttttttttttttttttttttttttttttttttttttttttttttttttttttt",
"tttttttttttttttttttttttttttttttttttttttttttttttttttttttttttttttt",
"tttttttttttttttttttttttttttttttttttttttttttttttttttttttttttttttt",
"tttttttttttttttttttttttttttttttttttttttttttttttttttttttttttttttt",
"tttttttttttttttttttttttttttttttttttttttttttttttttttttttttttttttt",
"tttttttttttttttttttttttttttttttttttttttttttttttttttttttttttttttt",
"tttttttttttttttttttttttttttttttttttttttttttttttttttttttttttttttt",
"tttttttttttttttttttttttttttttttttttttttttttttttttttttttttttttttt",
"tttttttttttttttttttttttttttttttttttttttttttttttttttttttttttttttt",
"tttttttttttttttttttttttttttttttttttttttttttttttttttttttttttttttt",
"ttttttttttttttttttttttttttt$$%%%%$#ttttttttttttttttttttttttttttt",
"tttttttttttttttttttttttttt%%%$$$%%%$tttttttttttttttttttttttttttt",
"tttttttttttttttttttttttt#%$$$$$$$$$%$ttttttttttttttttttttttttttt",
"tttttttttttttttttttttttt%$$$$$$$$$$@%$tttttttttttttttttttttttttt",
"ttttttttttttttttttttttt%$$$$$$$$$#%%%%$ttttttttttttttttttttttttt",
"tttttttttttttttttttttt$%$$$$$$$$#%+.o%%ttttttttttttttttttttttttt",
"tttttttttttttttttttttt%$$$$$$$$$#%o X%%:tttttttttttttttttttttttt",
"ttttttttttttttttttttt#%$$$$$$$$$$$$O#$:%tttttttttttttttttttttttt",
"ttttttttttttttttttttt$%$$$$$$$$$$$$%&:$rtttttttttttttttttttttttt",
"ttttttttttttttttttttt%$$$$$$$$$$$$$*&%ettttttttttttttttttttttttt",
"ttttttttttttttttttttt%$$$$$$$$$$$&$%17tttttttttttttttttttttttttt",
"tttttttttttttttttttt%%#$$$$$$$$&$%>5tttttttttttttttttttttttttttt",
"tttttttttttttttttttt#%$$$$$$$$&$%2tttttttttttttttttttttttttttttt",
"tttttttttttttttttttt$%$$$$$$$$$-9ttttttttttttttttttttttttttttttt",
"tttttttttttttttttttt$%$$$$$$$&%wtttttttttttttttttttttttttttttttt",
"tttttttttttttttttttt%%$$$$$$$&%6tttttttttttttttttttttttttttttttt",
"tttttttttttttttttttt#%$$$$$$$$$%3ttttttttttttttttttttttttttttttt",
"ttttttttttttttttttttt%$$$$$$$$&$;ttttttttttttttttttttttttttttttt",
"ttttttttttttttttttttt%$$$$$$$$$=%2tttttttttttttttttttttttttttttt",
"ttttttttttttttttttttt$%$$$$$$$$$&%8ttttttttttttttttttttttttttttt",
"tttttttttttttttttttttt%$$$$$$$$$&$,ttttttttttttttttttttttttttttt",
"tttttttttttttttttttttt$%$$$$$$$$$=%4tttttttttttttttttttttttttttt",
"tttttttttttttttttttttt#%$%$$$$$$$$$%qttttttttttttttttttttttttttt",
"ttttttttttttttttttttttt$%$%$$$$$$$&$<ttttttttttttttttttttttttttt",
"tttttttttttttttttttttttt%%$%$$$$$%$=%0tttttttttttttttttttttttttt",
"ttttttttttttttttttttttttt%%$$$$$$$$%&ttttttttttttttttttttttttttt",
"tttttttttttttttttttttttttt$%%%%%%%%#tttttttttttttttttttttttttttt",
"tttttttttttttttttttttttttttt$$$$$$tttttttttttttttttttttttttttttt",
"tttttttttttttttttttttttttttttttttttttttttttttttttttttttttttttttt",
"tttttttttttttttttttttttttttttttttttttttttttttttttttttttttttttttt",
"tttttttttttttttttttttttttttttttttttttttttttttttttttttttttttttttt",
"tttttttttttttttttttttttttttttttttttttttttttttttttttttttttttttttt",
"tttttttttttttttttttttttttttttttttttttttttttttttttttttttttttttttt",
"tttttttttttttttttttttttttttttttttttttttttttttttttttttttttttttttt",
"tttttttttttttttttttttttttttttttttttttttttttttttttttttttttttttttt",
"tttttttttttttttttttttttttttttttttttttttttttttttttttttttttttttttt",
"tttttttttttttttttttttttttttttttttttttttttttttttttttttttttttttttt",
"tttttttttttttttttttttttttttttttttttttttttttttttttttttttttttttttt",
"tttttttttttttttttttttttttttttttttttttttttttttttttttttttttttttttt",
"tttttttttttttttttttttttttttttttttttttttttttttttttttttttttttttttt",
"tttttttttttttttttttttttttttttttttttttttttttttttttttttttttttttttt",
"tttttttttttttttttttttttttttttttttttttttttttttttttttttttttttttttt",
"tttttttttttttttttttttttttttttttttttttttttttttttttttttttttttttttt"
};
