/* XPM */
static char *c5cbf46221944026dbde3469b92afdc9KAFiAT0Qtb1A96wg[] = {
/* columns rows colors chars-per-pixel */
"50 50 236 2 ",
"   c #395452",
".  c #3C635E",
"X  c #4A524E",
"o  c #4A5857",
"O  c #56595A",
"+  c #504F55",
"@  c #5A665C",
"#  c #49695B",
"$  c #555C64",
"%  c #595A62",
"&  c #4D5F69",
"*  c #665D65",
"=  c #4B6767",
"-  c #5B656B",
";  c #5A6B6B",
":  c #566867",
">  c #5A786A",
",  c #586B74",
"<  c #5A7878",
"1  c #4B7B6E",
"2  c #636463",
"3  c #646A64",
"4  c #6A6B66",
"5  c #65656C",
"6  c #6B646B",
"7  c #646B6C",
"8  c #6C6C6C",
"9  c #696665",
"0  c #726D6E",
"q  c #7A6C6C",
"w  c #75676C",
"e  c #64736D",
"r  c #6C736E",
"t  c #65776C",
"y  c #71726C",
"u  c #7A726F",
"i  c #6C6C72",
"p  c #656B74",
"a  c #746E73",
"s  c #7B6D73",
"d  c #756979",
"f  c #637372",
"g  c #6C7473",
"h  c #6C7A74",
"j  c #63747C",
"k  c #6C7679",
"l  c #6C7B7C",
"z  c #637E7A",
"x  c #747474",
"c  c #7B7375",
"v  c #757975",
"b  c #7A7A76",
"n  c #74757A",
"m  c #7B757B",
"M  c #747B7B",
"N  c #7D7D7C",
"B  c #826A6D",
"V  c #81767B",
"C  c #827C7C",
"Z  c #897B7D",
"A  c #857677",
"S  c #917C7E",
"D  c #837176",
"F  c #5C867C",
"G  c #578273",
"H  c #6B837D",
"J  c #66857C",
"K  c #75827D",
"L  c #7C817D",
"P  c #7B8175",
"I  c #82827E",
"U  c #89807F",
"Y  c #577984",
"T  c #697D83",
"R  c #757C81",
"E  c #7D7D82",
"W  c #7D7F8A",
"Q  c #857681",
"!  c #837D82",
"~  c #8A7D84",
"^  c #827F88",
"/  c #967E86",
"(  c #578586",
")  c #518F90",
"_  c #648283",
"`  c #6A8483",
"'  c #69898A",
"]  c #748384",
"[  c #7C8383",
"{  c #7D8589",
"}  c #7D8B8B",
"|  c #748888",
" . c #79938B",
".. c #758A92",
"X. c #6A9798",
"o. c #7C9393",
"O. c #7A9499",
"+. c #779899",
"@. c #69908F",
"#. c #5DA09A",
"$. c #69A79C",
"%. c #78A49C",
"&. c #7699A2",
"*. c #7391A4",
"=. c #57A5A7",
"-. c #5FADB5",
";. c #55B7AA",
":. c #68A8A6",
">. c #78A8A7",
",. c #68B2AD",
"<. c #79B4A8",
"1. c #69ABB9",
"2. c #68B6B7",
"3. c #78BAB5",
"4. c #4F9DA7",
"5. c #3BCFBE",
"6. c #59C7B5",
"7. c #4ECDBD",
"8. c #68C7BB",
"9. c #7BCBBC",
"0. c #76C4B7",
"q. c #6CB9C0",
"w. c #7BB0C0",
"e. c #3BD3C5",
"r. c #58CCC6",
"t. c #4AD4CD",
"y. c #57DACC",
"u. c #47D8D2",
"i. c #57D9D5",
"p. c #59CED8",
"a. c #67CBC4",
"s. c #77C6C6",
"d. c #63D4C8",
"f. c #66D7D6",
"g. c #79D8D6",
"h. c #52E4D5",
"j. c #6BE8DA",
"k. c #76E5D8",
"l. c #64F8DC",
"z. c #6CE4CE",
"x. c #60D9E1",
"c. c #5BE7E1",
"v. c #6AE8E5",
"b. c #79E8E5",
"n. c #6CF6E9",
"m. c #7DF4EC",
"M. c #76FCF3",
"N. c #838283",
"B. c #8A8384",
"V. c #848B85",
"C. c #8A8A86",
"Z. c #84858A",
"A. c #8B848A",
"S. c #838B8C",
"D. c #8C8D8C",
"F. c #92858B",
"G. c #928C8C",
"H. c #928285",
"J. c #87918D",
"K. c #8C928E",
"L. c #92918E",
"P. c #98908E",
"I. c #838C92",
"U. c #8C8C92",
"Y. c #878C99",
"T. c #928D92",
"R. c #9A8D92",
"E. c #9C8790",
"W. c #859393",
"Q. c #8C9392",
"!. c #8D9994",
"~. c #81939A",
"^. c #8A929A",
"/. c #849B99",
"(. c #939292",
"). c #999395",
"_. c #94939A",
"`. c #979798",
"'. c #A08B94",
"]. c #84A29C",
"[. c #99A39C",
"{. c #8D99A1",
"}. c #86A9A5",
"|. c #97AAA7",
" X c #83B6AD",
".X c #85B9B5",
"XX c #97B9B7",
"oX c #90AFAF",
"OX c #A6B7B6",
"+X c #B1BCBD",
"@X c #9CC8B9",
"#X c #8BD1BD",
"$X c #84CABD",
"%X c #AAC0BE",
"&X c #81BAC9",
"*X c #B4BFC3",
"=X c #87C8C3",
"-X c #97C8C6",
";X c #88D3C7",
":X c #98D4C8",
">X c #9BD7D1",
",X c #81D6D8",
"<X c #A6CAC9",
"1X c #A7D4CC",
"2X c #AFD4D0",
"3X c #88E7D4",
"4X c #94E5D2",
"5X c #99E8DA",
"6X c #88ECD4",
"7X c #A7E7DC",
"8X c #B3EBDC",
"9X c #96EAE7",
"0X c #86F7E9",
"qX c #98F6E6",
"wX c #88FCF4",
"eX c #98FCF6",
"rX c #8DEAE0",
"tX c #BAEAE6",
"yX c #ADFBED",
"uX c #A8F8EA",
"iX c #BCF4EB",
"pX c #B8F5E7",
"aX c #A3FDF5",
"sX c #AAFFFF",
"dX c #A9FCF5",
"fX c #B5FBF8",
"gX c #ADEAE5",
"hX c #CAD8D6",
"jX c #C5E7DE",
"kX c #C7F8ED",
"lX c #CAFFFC",
"zX c #C3FBF9",
"xX c #DCFEFD",
"cX c #D7FCF7",
"vX c #CFECEC",
"bX c #E8FDFB",
/* pixels */
"W.W.Q.N.N N N N.v J.!.K.I P N.N n d n x u D C I [ n l k 7 - 8 e x n M 8 m N U C U L.C.).U.U._.U.U.L.",
"Q.W.U.N.C N.N I I V.V.K.J.[ B.a n n x c u b C I L n n k 7 3 8 r n k n x N v I b I L.C.(.D.C.(.U.U.D.",
"F.F.F.B.C N.b N x V.K._.I N ! N.c v x x v v N P N m x x 8 4 4 4 x a m g g h ] M D._.G.T._.D.Q.J.(.(.",
"A.~ ~ ! N ! b v v L I N.b 6 6 c T.U.A.C.C.C.D.G.Q.C.D.S.I b C C ~ N x 8 7 ; r 8 3 8 x 8 N.[ { M v v ",
"N N [ L K ] v g x c ! ~ m 2 5 L ^.Q.G.D.G.G.D.K.Q.Q.U.D.N.b A Z Z Z x 9 i i 5 i i 5 i i N.{ N r x x ",
"N N [ K K L g 0 a C A.m k = = > Q.T.L.L.L.L.L.K.J.W.Q.U.N.C U Z C N.0 * % 5 % $ = o ; ; h L N y v x ",
"! C N.M v M y 0 w 6 g ; }.=X9.0.l m C N.L K K h n n n R n v b x x b m N R |.<X>X:X9.$X X' K U A m b ",
"! C L v x x 6 6 0 6 f   <.5X0X9.f s m N K H t : p 5 5 i i k v h v r N E < *XzXyXqX3X6X;XF K Z S C ! ",
"N C N v g 8 9 9 * 6 : = %.4X6X9.; m d ! ^ n % O $ $ O - - l l f v 4 b [ l XXzXuXqXk.4X;XJ K S A ~ N.",
"A.D.D.V.V.V.N.N.~ ! M e %.3.9.$.` ! ! ^ N U.OX<X*X.X X$X..T R N.B.N.V.Z.[ /.XX X$X3.0.<.F M A D c v ",
"D.U.Q.J.K.!.K.K.).A.! m { o.+.| T R E { n /.iXdX0Xy.7.8.#.T ! '.).L.N.m E R k T K | o.} e x x x x x ",
"T.T.Q.D.K.Q.Q.K.(.! ! A.A.U._.I.{ [ E [ ] +.iXqXwXz.7.8.#.' ~ / R.(.Z.N ^ N.R ! A.D._.Z.x x r x x x ",
"A.~ ~ A.A.C.V.B.C.N v ! C A.A.N i x x k v [ OXXX3.3.3.3.@.` ! ~ ! N.Z.[ L  .V.| V.Z.F.! N N m N M m ",
"s s s m C N N N N v 8 g r m a 6 - r y 9 9 % 7 p p | O.O.] { E m x x N ] H J.!.K.L i 0 x ! N.[ E N I ",
"k g v N N.N.I N L P e v g v 0 v X X O O O 4 i n { ^.^.Y.{ E x m 2 5 g v M I D.L.D.q c c ! ! ! E N N ",
"K l M [ N.! C N L L g b x g 6 N.+X[.|.|.~.|.{ n n Y.U.D.E N C [.OXOXoXXXoX!.B.C.C 9 x v E m ! B.N.N.",
"M L [ C.L.L.N.N N N N.K.x i + +XbXcXkXkXtXtXW W ^ ~ C b h h t hXbXcXfXuXiX-X: N 4 9 3 8 k i m (.G.L.",
"L N N.C.K.D.A.! N.N k n - O   ].cXcXfXyXaX9XY Y W Q ! N.h r t jXbXlXfXeXdX&X= x 4 4 3 r n n b G.D.D.",
"[ N N C.G.A.! ! m [.|.}.}.%.$.#XdXaXaXeXeX9X,.,.*...W N.E M e 1XfXyXwX0XeX&X< E u q 8 x m c A C.D.D.",
"x 8 x N B.C E ! i hXbXcXkXpX5XqXk.j.j.j.v.b.r.a.s.>.Y.U.A.! T :X6Xz.y.t.f.1.j N.U Z V C B.C b B.N N ",
"v g g [ N.! ! N.p hXbXkXiXuXyXqXl.l.n.n.m.n.h.y.8.:.+.^.{ R ` -XrXv.h.u.f.1.' ^ Z S Z Z ! N b P I N ",
"n n m N m E E [ k +XvXvXkX8X5X4Xz.k.k.k.k.z.8.a.8.$.+.S.{ R ] 3.g.q.i.r.q.>.R ! A Z U I N.I P L I N.",
"a a i 8 5 7 7 i 6 W ! R l T z o.!.W.+.+.O.+.X.+./.e @ 2 4 4 @ 7 Y Y Y Y T T i i N.L.Q.C.K.(.G.L.K.D.",
"c m n ; - ; ; : - n W ! W A.m ~ E.E.).G.Q.(.T._.C.9 3 3 3 3 @ 9 * * R R R R x x L J.!.J.J.Q.Q.D.(.(.",
"m M t ' F G G 1 < _ ] [ E Q ~ / '.H.).S.V.C.).F.D.M 7 J > > > > - i n m s c P r L K.K.!.!.J.^.U.D.D.",
"D.D.o.1X7X7X3X6X>X<.' ] T.R.E.~ Z C I v K v 8 2 N hXcXkXpXpX8X].z R d s q D I P K K v [ J.J.S.M v m ",
"(.Q.o.8XyXyX3X;X4X<.( z } U.T._.C N.M 4 v x 7 5 j xXxXzXpXgXiX>.( ] c B B A I K K V.v V._.).T.d x x ",
"A.C.J.2X8XuX4X4X5X<.J J o.Q.D.[ R [ [ v m 7 p = Y zXlXfXsXsXsX2.) @.v q q B P P K L N B.F.F.A.s a x ",
"/ ~ N.W.].%.%.%.}...] ] N 8 r P { R M k e o.2X7X9XrXf.v.c.u.i.u.t.a.X.K P I J.W.S.T.F.R.P.L.G.N.! [ ",
"A Z N v H J  .W.^.W m ! M @ # t { M ! v t  .iXfXeXi.p.t.e.h.h.u.p.f.:.J P N.J.Q.^._.F.F.L.L.D.E N m ",
"Z U [ ] ] ] W.U.U.F.A.N.r # # > [ U b y e  .tXyXeXf.p.x.x.x.p.p.p.f.&.W B.C.U.~.^._.G.G.L.G.D.W [ N.",
"8 y e K ] ] [ E Q Q E E /.@X#X<.t b c 4 4 t +.X.X.=.4.4.-.q.1.q.q.w...6 q s k T R Z.U U Z b N x v v ",
"2 2 4 v N.[ x 0 a m { _ .X5X5X9.> u y 3 3 2 $ = = Y p p ~.o.I.I.Y.U.E % s s 5 ; g [ ! ~ B D m d g x ",
"9 9 8 v I L b x m n l _ .X5X3X9.@ y y 3 9 9 * i 6 Q Q D A.L.`.).E.R.f o o o = . j R ! Q w w n g x x ",
"N m v b L L b b C C N.] O. X<.>.[ C.B.I L N.N.! ^ ~ / ^ b K h h h J  X#X:X9.;.;.&.Y.Y.Y.S.| N.N M N ",
"N.N.N.[ L L I I V C N.N M l F ' !.P.).).G.(._.T._.A.U._.g e > l | 1 :XuXqXm.e.c.&XO.&.O./.!.K.N C N.",
"! ! N.L L L L I N.Z ~ Q N.S.] } !.I.G.T.K.!.L.K.D. . .J # X X O 7   ;XeXaXm.e.p.&X*.:.X.O.Q.A.C C L ",
"E ! L M v v b b c D D D x m x | W.W.T.F.L.J.I K | @X@X@X%X%X<X*X+X.X9X0XwXv.c.c.,X1.q.<. .Z.I P v N ",
"! ! E n g x y q q B w w * 5 * R ^.!.D.G.L.V.v t H 8XkXpXcXxXbXvXtXfX0Xj.n.v.n.n.b.r.y.6.' E b v x x ",
"E N m x r x x x c * + % $ - & T W._.G.G.`.V.r t J jXpX8XcXzXlXsXeXeXwXk.0Xm.v.m.v.r.y.6.T B.M v x x ",
"B.B.U I I N N M l /.}.<.:.=.=.X.I.T.A.B.C.B.N v [ +X2X>X9XeXwXM.M.M.g.a.g.;Xs.=X3.0.8.$.} ~ V V m v ",
"G.G.L.L.G.K.S.] J <XiXfX9Xa.y.8.l Z C C U Z C N n I.*.X.r.r.e.e.e.t.=.Y Y < = ; < F F J M Q ~ ~ ! N.",
"G.C.L.G.L.K.V.` < >XyXaXk.7.i.6.l A L P C A C E I.Y.~.&.q.f.p.i.h.d.,.' ' R v v v K L [ [ { ^ ^ N.N ",
"D.G.A.A.C.C.[ K < @X>X7X3X8.d.-.| C.B.I U U I I [ I.Y.&.s.s.a.a.8.0.&.| E N x x P P C A ] R R W E C ",
"P P N x 0 q x 0 x M ] T ' O.O.O.} K.D.D.G.F.N N E l l ` +.X.X.*./.{...R m N r t > t y x g h n E N.[ ",
"[ [ N M 0 a c c x a ! N.U._.Y._.J.!.K.(.(.G.N.N { | | ] W.Q._.T.T.F.{ [ ! C x h l h M v g g c C C N ",
"E E E m v v b v b b C N B.A.F.R.D.W.C.B.C.B.B.~ m I V.N C.P.P.I G.G.V.L N V m n x a k x v b b B.N.N.",
"W [ [ N C I P v P I P P B.Z ~ Q L | m x v N B.R.P.Z N b U A U I I I K K ! ~ Q Q ~ ~ [ S.D.G.G.L.D.D.",
"E N [ C N L C L L N I N C L C ! L L N x x c T.G.G.N.N I C C I C I I L I N C ! ! ! ! [ N.L.(.G.L.D.(.",
"C [ ! L N.N N N.I E N N.L ! [ C L ! N x v v Q.U.D.! N N.L N N N.I b P C C [ E L C L N N.D.(.D.Q.(.D."
};
