/* XPM */
static char *_2629c29be154c3fa9edef75377869bdJumGlzCstrTScfft[] = {
/* columns rows colors chars-per-pixel */
"32 32 81 1 ",
"  c None",
". c black",
"X c #080800",
"o c #090900",
"O c #0C0C00",
"+ c #121200",
"@ c #131300",
"# c #141400",
"$ c #161600",
"% c #171700",
"& c #181800",
"* c #1A1A00",
"= c #1B1B00",
"- c #1C1C00",
"; c #1D1D00",
": c #1E1E00",
"> c #1F1F00",
", c #202000",
"< c #212100",
"1 c #232300",
"2 c #262600",
"3 c #272700",
"4 c #282800",
"5 c #292900",
"6 c #2A2A00",
"7 c #2D2D00",
"8 c #2E2E00",
"9 c #2F2F00",
"0 c #303000",
"q c #323200",
"w c #333300",
"e c #343400",
"r c #404000",
"t c #5C5C00",
"y c #5D5D00",
"u c #616100",
"i c #656500",
"p c #666600",
"a c #696900",
"s c #6D6D00",
"d c #6F6F00",
"f c #7E7E00",
"g c #838300",
"h c #848400",
"j c #888800",
"k c #8D8D00",
"l c #A5A500",
"z c #A7A700",
"x c #ADAD00",
"c c #AFAF00",
"v c #CACA00",
"b c #CBCB00",
"n c #CCCC00",
"m c #CECE00",
"M c #D0D000",
"N c #D1D100",
"B c #D2D200",
"V c #D4D400",
"C c #D6D600",
"Z c #D9D900",
"A c #DCDC00",
"S c #DEDE00",
"D c #DFDF00",
"F c #E0E000",
"G c #E3E300",
"H c #E4E400",
"J c #E7E700",
"K c #EBEB00",
"L c #ECEC00",
"P c #EFEF00",
"I c #F0F000",
"U c #F3F300",
"Y c #F5F500",
"T c #F7F700",
"R c #F8F800",
"E c #FAFA00",
"W c #FBFB00",
"Q c #FCFC00",
"! c #FDFD00",
"~ c #FEFE00",
"^ c yellow",
/* pixels */
"            q9>OX=9q            ",
"         9>..........>9         ",
"        1..tlbDJJFnlt..1>       ",
"      2..fCW^^^^^^^^^Zg..4      ",
"     4.>b^^^W^W^^^W^^^^b9.4     ",
"    2.tL^^W^^^^^^^^^^W^^Lp.4    ",
"   2.tY^W^^^^^^^^^^^^^^W^Wp.2   ",
"   .>K^^^^^^^^^^^^^^^^^^W^Iq.1  ",
"  1.b^W^^^^^^^^^^^^^^^^^^W^n.1  ",
" 9.f^^W^^^^^^^^^^^^^^^^^^^^^j.9 ",
" >.C^W^^^^^^^^^^^^^^^^^^^^W^D.= ",
" .t^^^^^^^^^^^^^^^^^^^^^^^^^^a. ",
"q.l^^^^^^^^^^^^^^^^^^^^^^^^W^x.q",
"9.b^^^^^^^^^^^^^^^^^^^^^^^^^^n.4",
">.D^W^^^^^^^^^^^^^^^^^^^^^^^^F.$",
"O.J^^^^^^^^^^^^^^^^^^^^^^^^^^K..",
"O.J^^^^^^^^^^^^^^^^^^^^^^^^^^K..",
">.D^W^^^^^^^^^^^^^^^^^^^^^^W^F.+",
"9.n^^^^^^^^^^^^^^^^^^^^^^^^^^B.4",
"q.l^W^^^^^^^^^^^^^^^^^^^^^^W^c.e",
" .uW^^^^^^^^^^^^^^^^^^^^^^^^^s. ",
" >.Z^W^^^^^^^^^^^^^^^^^^^^W^D.= ",
" 9.g^^^^^^^^^^^^^^^^^^^^^^^^k.9 ",
"  1.n^W^^^^^^^^^^^^^^^^^^W^C.>  ",
"  >.9L^^^^^^^^^^^^^^^^^^W^Yr.1  ",
"   4.pY^^^^^^^^^^^^^^^^^^Ws.2   ",
"    4.pI^^W^^^^^^^^^^W^^Is.4    ",
"     4.qn^^^W^W^^W^W^^^Br.4     ",
"      2..jD^^^^^^^^^^Dk..4      ",
"       >>..axBFLKFBxs..>1       ",
"         q=..........$q         ",
"            q4$..$4e            "
};
