/* XPM */
static char *_deb8469ecde40ebcf799a7c7ad904b7R5OWhd4EKiXmW4Cy[] = {
/* columns rows colors chars-per-pixel */
"32 32 246 2 ",
"   c None",
".  c black",
"X  c #010101",
"o  c #020202",
"O  c gray1",
"+  c #000007",
"@  c #040404",
"#  c gray2",
"$  c #070505",
"%  c #0F0300",
"&  c gray3",
"*  c #0B0B0B",
"=  c #0C0C0C",
"-  c gray6",
";  c #120500",
":  c #130500",
">  c #140500",
",  c #150500",
"<  c #150600",
"1  c #170600",
"2  c #101010",
"3  c #111111",
"4  c gray7",
"5  c #131313",
"6  c gray8",
"7  c #161616",
"8  c gray9",
"9  c #181818",
"0  c #191919",
"q  c #1B1B1B",
"w  c #1D1D1D",
"e  c #1E1E1E",
"r  c gray12",
"t  c #222222",
"y  c #313131",
"u  c #4C1500",
"i  c #512500",
"p  c #5B2A01",
"a  c #5C2B00",
"s  c #5D2B00",
"d  c #5B2C00",
"f  c #5E2C00",
"g  c #5F2C00",
"h  c #5D2E0B",
"j  c #602D00",
"k  c #612D00",
"l  c #612E00",
"z  c #622E00",
"x  c #632E00",
"c  c #642F00",
"v  c #652F00",
"b  c #653000",
"n  c #663100",
"m  c #6B3200",
"M  c #6A3300",
"N  c #6B3500",
"B  c #6C3500",
"V  c #6D3500",
"C  c #6E3500",
"Z  c #6F3600",
"A  c #703600",
"S  c #713600",
"D  c #703700",
"F  c #713700",
"G  c #723800",
"H  c #733800",
"J  c #733900",
"K  c #743900",
"L  c #763900",
"P  c #773A00",
"I  c #783A00",
"U  c #793A00",
"Y  c #793B00",
"T  c #7A3B00",
"R  c #7A3C00",
"E  c #7E3E00",
"W  c #6D3710",
"Q  c #403D3C",
"!  c #484848",
"~  c gray29",
"^  c #4B4B4B",
"/  c gray30",
"(  c gray31",
")  c #505050",
"_  c #515151",
"`  c #565656",
"'  c gray38",
"]  c #686767",
"[  c #686868",
"{  c #6B6969",
"}  c gray43",
"|  c #746E6C",
" . c #717171",
".. c #727272",
"X. c #747474",
"o. c gray46",
"O. c gray47",
"+. c gray48",
"@. c #7B7B7B",
"#. c #7C7C7C",
"$. c #7E7E7E",
"%. c gray50",
"&. c #923900",
"*. c #864100",
"=. c #874200",
"-. c #894300",
";. c #884400",
":. c #894400",
">. c #8A4500",
",. c #8B4500",
"<. c #8D4400",
"1. c #8C4600",
"2. c #8D4600",
"3. c #8D4700",
"4. c #8E4600",
"5. c #8F4600",
"6. c #8E4700",
"7. c #8F4700",
"8. c #904700",
"9. c #914700",
"0. c #904800",
"q. c #914800",
"w. c #924800",
"e. c #924900",
"r. c #934900",
"t. c #944900",
"y. c #944A00",
"u. c #954A00",
"i. c #964A00",
"p. c #974A00",
"a. c #964B00",
"s. c #974B00",
"d. c #984A00",
"f. c #984B00",
"g. c #984C00",
"h. c #994C00",
"j. c #9A4C00",
"k. c #9A4D00",
"l. c #9B4D00",
"z. c #9C4D00",
"x. c #9C4E00",
"c. c #9D4E00",
"v. c #9E4E00",
"b. c #9F4F00",
"n. c #9B4F0B",
"m. c #9C4F10",
"M. c #A24600",
"N. c #A04F00",
"B. c #A05000",
"V. c #A15000",
"C. c #A25000",
"Z. c #A35000",
"A. c #A25100",
"S. c #A35100",
"D. c #A45200",
"F. c #A55200",
"G. c #A55300",
"H. c #A65200",
"J. c #A65300",
"K. c #A75300",
"L. c #A75301",
"P. c #A85300",
"I. c #A85400",
"U. c #A95400",
"Y. c #AA5400",
"T. c #AA5500",
"R. c #AB5500",
"E. c #AA5501",
"W. c #AB5600",
"Q. c #AC5500",
"!. c #AD5600",
"~. c #AE5600",
"^. c #AE5700",
"/. c #AF5700",
"(. c #B05700",
"). c #B05800",
"_. c #B15800",
"`. c #B25800",
"'. c #B25900",
"]. c #B35900",
"[. c #B45A00",
"{. c #B55A00",
"}. c #B65A00",
"|. c #B65B00",
" X c #B75B00",
".X c #B85C00",
"XX c #B95C00",
"oX c #BA5C00",
"OX c #BA5D00",
"+X c #BB5D00",
"@X c #BC5D00",
"#X c #BC5E00",
"$X c #BD5E00",
"%X c #BF5F00",
"&X c #A05215",
"*X c #C66300",
"=X c #926959",
"-X c #808080",
";X c gray51",
":X c #848383",
">X c #848484",
",X c #868686",
"<X c gray53",
"1X c #888888",
"2X c #898989",
"3X c gray54",
"4X c #8B8B8B",
"5X c #8E8E8E",
"6X c gray57",
"7X c #929292",
"8X c gray58",
"9X c #979797",
"0X c #9A9A9A",
"qX c #9B9B9B",
"wX c gray61",
"eX c #9D9D9D",
"rX c gray62",
"tX c #9F9F9F",
"yX c #A0A0A0",
"uX c gray63",
"iX c #A2A2A2",
"pX c #A4A4A4",
"aX c #A7A7A7",
"sX c gray66",
"dX c #A9A9A9",
"fX c #AAAAAA",
"gX c gray67",
"hX c #ACACAC",
"jX c #AFAFAF",
"kX c gray69",
"lX c #B1B1B1",
"zX c #B2B2B2",
"xX c gray70",
"cX c #B6B6B6",
"vX c #B7B7B7",
"bX c #B5B8B9",
"nX c gray72",
"mX c #B9B9B9",
"MX c gray73",
"NX c gray74",
"BX c #C0C1C1",
"VX c #C1C1C1",
"CX c #C5C5C5",
"ZX c #CACACA",
"AX c gray80",
"SX c #D0D0D0",
/* pixels */
"                                  {  .0XuXeXo.$.                ",
"                              ' gXSXhXnXNXjXgXAXnXo.            ",
"d D z                       gXxXgX6X( = X X y } eXjXcX'         ",
"V 0.4.4.K               ! CXCX$.X X X X X X X X X ` nXZX!       ",
"M :.;.4.u.f.n         +.nXeX) X - 0 3 * X X * 7 e X t 6XnX .    ",
"M 4.:.4.4.u.N.D       ZXnXX X e X X X X X X X X X 0 X X cXNX    ",
"M 0.:.4.0.u.j.K.W   >XnX) X e X X X X X X X X X X X 0 X ! VXo.  ",
"M 0.4.9.0.u.u.&X&.| VX] X 0 X X X X X X X X X X X X X 0 X o.xX  ",
"Z 0.0.0.u.y.j.m.M.=XbXQ X * X X X X X X X X X X X X X - X ( ZX;X",
"V 0.0.0.0.j.j.b.V.n.{ X $ X X X X X X X X X X X X X X X 3 X xX0X",
"G 0.:.0.u.j.j.N.V.L.u + % X X X X X X X X X X X X X X X 3 X ;X1X",
"V y.0.u.y.j.x.N.V.T.h X ; X X X X X X X X X X X X X X X 0 X eXgX",
"G u.0.u.j.j.x.V.V.!.p X ; X X X X X X X X X X X X X X X 0 X eXaX",
"G y.0.u.j.x.V.V.V.!.p X ; X X X X X X X X X X X X X X X 7 X eXaX",
"G f.0.u.j.x.V.V.K.!.d X ; X X X X X X X X X X X X X X X 3 X $.1X",
"G j.u.j.j.x.V.K.L.^.s X ; X X X X X X X X X X X X X X X 0 X eXaX",
"G j.u.j.x.x.V.K.T.!.s X ; X X X X X X X X X X X X X X X 0 X eXgX",
"K x.u.f.x.V.V.L.T.^.g X ; X X X X X X X X X X X X X X X 7 X 9XuX",
"G x.f.x.N.V.V.L.P.].g X ; X X X X X X X X X X X X X X X 3 X ;X1X",
"K x.f.x.N.V.K.L.T.].g X > X X X X X X X X X X X X X X X 0 X eXjX",
"I N.j.x.x.K.K.P.T.].z X > X X X X X X X X X X X X X X X 0 X eXgX",
"K N.x.N.N.K.K.T.!.].z X ; X X X X X X X X X X X X X X X 3 X ;X1X",
"K N.x.x.V.K.P.!.(.].z X > X X X X X X X X X X X X X X X 7 X 0XuX",
"I K.x.N.V.K.T.!.(.].z X ; X X X X X X X X X X X X X X X 0 X uXjX",
"I K.x.N.K.K.T.!.(.+Xz X > X X X X X X X X X X X X X X X 7 X 6X0X",
"L K.x.K.K.P.!.(.].].z X > X X X X X X X X X X X X X X X 3 X >X5X",
"I K.x.N.K.P.!.(.].+Xz X > X X X X X X X X X X X X X X X 0 X uXgX",
"I K.N.K.P.!.!.(.].+Xv X > X X X X X X X X X X X X X X X 0 X uXgX",
"I L.V.K.P.!.!.].].%Xv X > X X X X X X X X X X X X X X X 3 X 1X9X",
"R K.V.K.P.!.!.].].@Xv X > X X X X X X X X X X X X X X X 7 X 1X6X",
"E ].T.(.].].+X%X%X*Xm X > X X X X X X X X X X X X X X X 0 X gXxX",
"n =.-.-.4.9.9.0.u.u.i X ; X X X X X X X X X X X X X X X 3 X $.>X"
};
