/* XPM */
static char *_3d65800d6644a14e2c6506cf7534961K3sH6WNDx88p4eLO[] = {
/* columns rows colors chars-per-pixel */
"32 32 87 1 ",
"  c #00000B",
". c #000A0E",
"X c #150B0E",
"o c #0F100F",
"O c #000A10",
"+ c #1C0E14",
"@ c #171111",
"# c #1D1414",
"$ c #270B12",
"% c #231614",
"& c #291616",
"* c #2F1A17",
"= c #271418",
"- c #2B1619",
"; c #331717",
": c #341C17",
"> c #321719",
", c #39171B",
"< c #351919",
"1 c #3C1D19",
"2 c #392217",
"3 c #34231B",
"4 c #3C221A",
"5 c #421D1C",
"6 c #481D1D",
"7 c #44241D",
"8 c #4C231E",
"9 c #4F2A1E",
"0 c #51291F",
"q c #4F2420",
"w c #412F20",
"e c #492E20",
"r c #552620",
"t c #5A2721",
"y c #562D20",
"u c #5C2A22",
"i c #642E24",
"p c #692E25",
"a c #653224",
"s c #6D3227",
"d c #6F3927",
"f c #6A3F29",
"g c #703327",
"h c #753529",
"j c #783729",
"k c #743C28",
"l c #78382A",
"z c #7C392B",
"x c #7D3A2B",
"c c #7E3B2B",
"v c #793F29",
"b c #7F3C2C",
"n c #6D432C",
"m c #70442D",
"M c #7B422B",
"N c #7C422B",
"B c #7E442C",
"V c #774930",
"C c #803B2B",
"Z c #823E2C",
"A c #853F2D",
"S c #863F2D",
"D c #853F2E",
"F c #81402C",
"G c #84422D",
"H c #86402E",
"J c #87412E",
"K c #8B422F",
"L c #8B452F",
"P c #8B462F",
"I c #8D462F",
"U c #8E4630",
"Y c #8E4730",
"T c #814B31",
"R c #844C31",
"E c #8F4830",
"W c #924931",
"Q c #934832",
"! c #934B32",
"~ c #974D35",
"^ c #9F5237",
"/ c #9D5D3B",
"( c #A35539",
") c #A3603D",
"_ c #B1623F",
"` c #AA6541",
"' c #B56842",
/* pixels */
"kkkkkkkkdBn 0NjkkkkkkkkkNfavkkkk",
"DDDDHDHHGH_niIDDDDHDDDDZWGpKDDDD",
"gsggggggliHB8jghgssshsgpck8hgsgg",
"jjlljjsllgZd0CggsisjjjljDk0cjjjj",
"hhhjjjsushDl5aiiisjhhjjsZjrjggjj",
"jjhags1#5abdqhllgsjjhjllDvrcajjj",
"hhls8>##%89#ulsgghjgghggi0+9ihsg",
"<1<87=*%o<4*7rr907$8008e4:240000",
"=%.0WUr=1lQlHEUGW)wrUUUUEEIIILLL",
"86<<hCuuslsihhhha~'8phhhhlghhhhg",
"6q<1hssjhjasjhjjlgU9hssjjhhjjjjj",
"6r<1hjjhjhusjhhhgjUrsjishiusjhhj",
"q6<,hjjjjshhhhhjkpHrsjjiisjigjjh",
"6q<1jhhjhhjjhhjjjsl8hhjsijjjgjhh",
"qr,*sjlllzlllljlzl!0pccphjhcclll",
",1,O@6urrrrtu>>u00a#+tr1iurt0rry",
"FcZvkkakkkTeakdhkkskjkdT3Xdlkkkk",
"FDFDGljDHc(RaLHDHHHHDDc(_#sUCHHH",
"ghgsiigggscd0jhsgggghspp_V6hshsu",
"llsishjklgHhtlligllljjjhGM9csr1-",
"gipjijgjlgHkrlsiljgsjjhhZhrhsi81",
"ahjjkjljlgDkulsjjkjsagjhHvullljj",
"jlhhggggsg0+8hshgggjspjgj8rhhshs",
"::1,8080007:49r9008;7090037r990r",
"4*X.yWhNILIUUILLH~/&sELLIWILLELL",
"II9-shhigjhghjhhdl!0ghhglshgghsj",
"sDk<jjjigjjkjhsjhjH9hjjjljjjjjas",
"jhL0sjhigjhjhisjhjI9ghsjjhgjghjs",
"hhL0shq7sjjjgsjghhI0jpuhjhhhjhhj",
"jjI0hji<ilgjjjjjhhL8uahsjhjjjhjh",
"hhH0hjsisghhjhjjgjL2>hjhhhhhhhhh",
"114&,1<,11111111144#&1:111111111"
};
