/* XPM */
static char *_9e0c310320b4c70e001918c5c495a41enIoeRqTh3Hsk9cF[] = {
/* columns rows colors chars-per-pixel */
"32 32 51 1 ",
"  c #C22800",
". c #C32900",
"X c #C32B00",
"o c #C32E00",
"O c #C33107",
"+ c #C33108",
"@ c #C33109",
"# c #C3310A",
"$ c #C3320C",
"% c #C3330E",
"& c #C3330F",
"* c #C33310",
"= c #C33311",
"- c #C33312",
"; c #C33313",
": c #C33413",
"> c #C33618",
", c #C33619",
"< c #C33719",
"1 c #C3391A",
"2 c #C3391E",
"3 c #C3391F",
"4 c #C33A1F",
"5 c #C33A20",
"6 c #C33A21",
"7 c #C33D22",
"8 c #C33E24",
"9 c #C33C26",
"0 c #C33E29",
"q c #C3412B",
"w c #C3422B",
"e c #C3422C",
"r c #C3422D",
"t c #C3432F",
"y c #C34430",
"u c #C34531",
"i c #C34533",
"p c #C34634",
"a c #C34837",
"s c #C34A3E",
"d c #C34940",
"f c #C34B40",
"g c #C34D44",
"h c #C34D45",
"j c #C34E47",
"k c #C34F48",
"l c #C35049",
"z c #C3504E",
"x c #C35251",
"c c #C35652",
"v c #C35855",
/* pixels */
"v8pyypyyprprppypyyyypyypyyypya3v",
"d ;+######+#################+> s",
"ko8333345555333533665555333550ok",
"ho5,,111,1,,1,1,1<11,1,,111,,8Xz",
"ho3,11,,,3,,,31,>1,,3,,12<,<,8 z",
"ho3>,,,3,1,1,,,,,,1,1,,1,<<2,8Xx",
"ho3>,,,1,,3,1,,113,,,,,,,<<<<9Xj",
"y&3,31,,1,,,1,,3,,,1,13,<<<<<6Xa",
"w;31,1,,,,1,1,,,<<,2,2<,2,,<<5%t",
"w;1,,3,13,1,,,1,2<,<,<<,<,,2<5#t",
"w&3,,,1,,1,,,3,1,,<<<<<2<,,<<4#i",
"w&3,1,,,,,,3,1,,<<,,2<<<<2<<<6#t",
"r;,,1,,31,,1,,3,<,<<<<<,<<<4<6#t",
"w;511,,13,,3,1,,2,2<,,2,2<<<<6@p",
"r;1,,,,,,,,,,,11,2,,<2<2<<<<<4$t",
"w;51,51,,11,3,,,,<<<<<><<<<<<6$t",
"r-2<<<2<<<2<2<,,<2,,,,<2,,<<<2#i",
"r:2,<,,<<,,<,<<2<<<<2<<<<<,,22#t",
"w=2,2,,<2,,<,<<<<<<2<<<<<,<2<4#i",
"r-2<<,,2<,,2<<<,2<,,,,2<2,<<<6#t",
"w:2,2,,<<,,<,<<,,,<<<2,,4<<<<6$t",
"w%2<<<<<<2<<,2<2<<,,,,2<<<<4<6$t",
"r:2,,<<<2<2,<<2<<,<2<2,<<<<<<4@t",
"r:<,,2<,,<<,<,,<2,<<<<,<<<<<<6$t",
"i=2<<<<22,,<2,,<<<2<2<,,2<,<<5oa",
"sX2<<<<<<<<<<,,2<,,<,<<2<<>2<9Xj",
"so4<<,<<,<<<<,,<2,,<,<<<<>><<5og",
"so2<<,2<,2<<<2<<<,,2<<<<<2<<<9Xg",
"so2<<,,<<<<,<<<<<,,<<<<<<<<<<9Xg",
"s@5<2222<2222<2222<22<2222<2<0ok",
"aX>::%:%%::%::%:::::%::%::%:%2.f",
"k6rrrrrrrrrwrrwrrrrrwrrrrrrrri<c"
};
