/* XPM */
static char *_c09e1bc7bd942f1d6b435715804dccfiHaQ89VcEERAfpnV[] = {
/* columns rows colors chars-per-pixel */
"32 32 188 2 ",
"   c None",
".  c #000000",
"X  c #020C00",
"o  c #090F01",
"O  c #00000C",
"+  c #0C1601",
"@  c #051800",
"#  c #121C02",
"$  c #1A1E04",
"%  c #101700",
"&  c #020013",
"*  c #00001E",
"=  c #080010",
"-  c #160619",
";  c #002700",
":  c #152201",
">  c #1D2A03",
",  c #182506",
"<  c #003200",
"1  c #003C00",
"2  c #1C2311",
"3  c #212C07",
"4  c #2B3C08",
"5  c #293C05",
"6  c #313D00",
"7  c #283614",
"8  c #000024",
"9  c #000029",
"0  c #150025",
"q  c #000031",
"w  c #004800",
"e  c #005800",
"r  c #2C4501",
"t  c #364A08",
"y  c #3C5908",
"u  c #156400",
"i  c #276100",
"p  c #3C6400",
"a  c #3C6C00",
"s  c #306100",
"d  c #3C7400",
"f  c #3F7800",
"g  c #445D11",
"h  c #446601",
"j  c #446C00",
"k  c #4A6F00",
"l  c #4C7301",
"z  c #4A7C00",
"x  c #547D00",
"c  c #4B6512",
"v  c #4F6B16",
"b  c #526F18",
"n  c #577619",
"m  c #567617",
"M  c #40433E",
"N  c #445A25",
"B  c #4D6427",
"V  c #567128",
"C  c #526536",
"Z  c #473952",
"A  c #5B6949",
"S  c #5A4D69",
"D  c #6F6971",
"F  c #706F74",
"G  c #777777",
"H  c #6A6B69",
"J  c #508000",
"K  c #598E00",
"L  c #578404",
"P  c #5B9400",
"I  c #6A8500",
"U  c #668C00",
"Y  c #639500",
"T  c #669902",
"R  c #699E01",
"E  c #6B9F09",
"W  c #769A00",
"Q  c #66891F",
"!  c #689B16",
"~  c #6EA201",
"^  c #64A300",
"/  c #77AB17",
"(  c #7DB11D",
")  c #5B8324",
"_  c #698D24",
"`  c #658723",
"'  c #6D9322",
"]  c #759D25",
"[  c #729828",
"{  c #638A34",
"}  c #77A026",
"|  c #7AA325",
" . c #79AB24",
".. c #7DAF2B",
"X. c #6E864D",
"o. c #84A600",
"O. c #84BB00",
"+. c #8AB715",
"@. c #81AC2A",
"#. c #84B524",
"$. c #8ABC24",
"%. c #83B32B",
"&. c #8CBD2C",
"*. c #89B72D",
"=. c #89B33B",
"-. c #8BB935",
";. c #8DC600",
":. c #9AC400",
">. c #95CB02",
",. c #95CA0F",
"<. c #95CB11",
"1. c #A9D500",
"2. c #BBEB00",
"3. c #B7E403",
"4. c #BDF01F",
"5. c #8FC12B",
"6. c #92C52D",
"7. c #96CA2C",
"8. c #9ACF2B",
"9. c #94C532",
"0. c #96C932",
"q. c #99CC33",
"w. c #97C93B",
"e. c #9BCD3B",
"r. c #95C43C",
"t. c #9DD135",
"y. c #9ED23B",
"u. c #A3D42A",
"i. c #A4D935",
"p. c #A1D63C",
"a. c #A0D535",
"s. c #AFE22A",
"d. c #BEEA3A",
"f. c #B3E626",
"g. c #C0EF00",
"h. c #C9FD00",
"j. c #C9FA07",
"k. c #D3FF00",
"l. c #CAFE12",
"z. c #C4F71B",
"x. c #C6FB16",
"c. c #8BAB6D",
"v. c #8DB364",
"b. c #9DBA76",
"n. c #9ECE45",
"m. c #A0D143",
"M. c #A5D15D",
"N. c #AEE141",
"B. c #AEDB6A",
"V. c #B0D678",
"C. c #DCFF73",
"Z. c #7B7582",
"A. c #858387",
"S. c #959E8A",
"D. c #939196",
"F. c #9AB680",
"G. c #A6B998",
"H. c #9E9DA1",
"J. c #A09EA2",
"K. c #A6A5A8",
"L. c #BBBBBB",
"P. c #A9C293",
"I. c #B2CA9C",
"U. c #B6D292",
"Y. c #A7C38A",
"T. c #DFFF8B",
"R. c #D1E6B8",
"E. c #DAF2BD",
"W. c #EAFFB1",
"Q. c #C2BEC6",
"!. c #BFC2C1",
"~. c #C4C3C5",
"^. c #CFDAC6",
"/. c #CECCD1",
"(. c #D3D3D6",
"). c #DAD9DC",
"_. c #DFE8D8",
"`. c #F6FFD4",
"'. c #E9FAD5",
"]. c #E0DFE2",
"[. c #E4E7E4",
"{. c #EAF1E3",
"}. c #F4FBEB",
"|. c #EFF1F0",
" X c #F5F5F5",
".X c #F6F8F5",
"XX c #FAFCF4",
"oX c #FEFEFE",
/* pixels */
"                                              .                 ",
"                                              . .               ",
"                                              % .               ",
"                              . . . . . . * q = > .   .         ",
"                          . t o.1.3.g.g.3.O.U . 9 2   . .       ",
"                      . > :.h.k.l.x.z.z.k.C.T.d.W . & # .       ",
"                    . I g.l.f.t.q.0.0.w.>.{.oXXXW.1.: & :   .   ",
"                  . W l.s.0.9.0.q.q.q.e.<.V..XoXoX`.3.t .   . . ",
"                . I 4.t.9.q.q.q.q.q.q.7.e.>.n.R.}.[.N.1.: . o . ",
"                6 u.q.q.q.q.q.q.q.q.q.q.q.e.7.;.,.>.5.i.+.. # . ",
"              . | t.0.q.q.q.q.q.q.q.q.q.q.0.q.n.q.y.p.e.q.c . # ",
"              t q.q.q.q.q.q.0.q.0.q.q.q.q.q.t.7...L x 5.i.@..   ",
"            . ' a.q.q.q.q.q.q.q.q.q.q.q.q.q.6.! < Z Z.. #.q.t   ",
"      . .   . *.t.0.q.q.q.0.q.q.q.q.q.q.0.q. .i D .XoXQ.X p.' . ",
"    . . +   4 0.q.q.q.q.q.q.q.q.q.q.q.7.t.5.! @ [.oXoXoXA.W =.. ",
". . . . #   c q.q.q.q.q.q.0.q.q.0.t.5.Y 6.%.f F oXoXoX.X(.a w.. ",
". .   . :   n t.q.q.q.q.q.q.q.q.q.e.#.K #...u H.oXoX~.. ).C 5., ",
"      . % . n y.0.q.q.t.q.9.6.t.5.0.5.K $...e K.oXoXG A..XC $.7 ",
"      . + . b 8.q.q.&.] ] @.0.y.] 9.q.#.q. .i D.oXoXA.H [.A +.2 ",
"      .     g M.t.@.g _ ] 9.p.] Q t.0.t.q. .d F  XoXL.. /.V &.. ",
"            @ U.B.x ` ' | q.| y 0.q.q.0.q.#.L M (.oX.X.XQ.z =.. ",
"            . b.E.x B ' ..' 4 9.t.0.q.t.t.5.! w H.[. X|.Z +._   ",
"            9 a '.S.p [ } 5 0.t.7.t.&.} q.q.( J - K.!.S k w.#   ",
"              . Y.L.X =.7 5.t.0.0.t.g v t.t.0.! j . . h e.L .   ",
"              * s G.X.x } m.6.q.t.' . t.9.Q q.q.5. .#.0.b .     ",
"                . ) N A 8.>.m.0.q.&.3 n g . ' 0.` 0.*.5 . #     ",
"                O 7 < J.XX-.^ e.y.a.&.. n %.. : . 3 . . #       ",
"              . X & : { _..XG.P O.( ( #.&./ l y T p r #         ",
"              . . o & . u P.{.^.c.U P T T Y R ~ T j .           ",
"              .       = 0 ; d F.I.v.R E R ^ U l : .             ",
"                      X X 0 & . w j l l j t + .                 ",
"                      . .       8 . . . . .                     "
};
