/* XPM */
static char *dd24bf22d72e4f87b112ab805181bb8eYHLqgOkkrisFrEbj[] = {
/* columns rows colors chars-per-pixel */
"32 32 24 1 ",
"  c None",
". c #FFCB00",
"X c #FFCC00",
"o c #FFCD00",
"O c #FFCE00",
"+ c #FFCF00",
"@ c #FFD000",
"# c #FFD100",
"$ c #FFD200",
"% c #FFD300",
"& c #FFD400",
"* c #FFD500",
"= c #FFD600",
"- c gold",
"; c #FFD800",
": c #FFD900",
"> c #FFDA00",
", c #FFDB00",
"< c #FFDC00",
"1 c #FFDD00",
"2 c #FFDE00",
"3 c #FFDF00",
"4 c #FFE900",
"5 c #FFEA00",
/* pixels */
"             ooo.oo.o           ",
"          oo;1;$$$-;1;oo        ",
"        o-;ooo.o....o.$;$o      ",
"      o$;oo.ooo..o.o.ooo.;o     ",
"     o1o.oo..o.oo.o.o.o..o$;o   ",
"    o1o.o..oo.o..o.o.o.ooo..1o  ",
"   o1o.o.o.o.o.oo.o.o.o..oo..1  ",
"   -o.o.o.o.o.o..o.o.o.oo..oooo ",
"  o-oo.o.o.o.o.oo.o..o.o.oo..o4.",
"  1..oo.o.o.o.o..o.oo.o.o..$;oo ",
" o-.o.o..o.o.o.oo.o..oo.o-;oo   ",
" -...o.oo.o.o.o..o.o...-1.o     ",
"o1o.o.o..o.o.o.oo.o..-;.        ",
"o;.o.o.oo.o.o.o..o.--o          ",
".-..o.o..o.o.o.oo;;o            ",
".$.o.o.oo.o.o.o.oo              ",
"o$.oo.o..o.o.o.ooo              ",
".$o..o.oo.o.o.o.o;-.            ",
"o;.oo.o..o.o.o.oo..--.          ",
".1oo.o.oo.o.o.o..o.oo-;o        ",
" -.oo.o..o.o.o.oo.o.o..;;.      ",
" o-..o.oo.o.o.o..o.o.o.oo-;o    ",
"  1oo..o.o.o.o.oo.o.o.oooo.$;.  ",
"  o$.oo.o.o.o.o..o.o.o.oo..ooo4o",
"   ;ooo..o.o.o.oo.o.o.o..ooo.o. ",
"   o1o.oo.o.o.o..o.o.o.oo..oo1  ",
"    o1o..oo..o.oo.o.o.o..o..1o  ",
"     .1oo.ooo.o..o.o.o.oo.o1o   ",
"      o-;.o..oo.o.o.oo.oo;o     ",
"        o;;ooo.o.o.oooo1-.      ",
"          oo1;-$$o$-;1.o        ",
"             o.o.o..o           "
};
